<svg width="71" height="24" viewBox="0 0 71 24" fill="none" xmlns="http://www.w3.org/2000/svg">
<path d="M70.9443 2.95182C70.9443 4.47646 69.7081 5.71227 68.1834 5.71227C66.6585 5.71227 65.4225 4.47646 65.4225 2.95182C65.4225 1.42717 66.6585 0.191366 68.1834 0.191366C69.7081 0.191366 70.9443 1.42717 70.9443 2.95182Z" fill="#0395FF"/>
<path d="M54.627 0.643743L62.7548 16.8624L59.4579 23.3432L48.0522 0.643635L54.627 0.643743Z" fill="black"/>
<path d="M41.4219 14.4038C40.5292 16.2269 38.656 17.4827 36.4888 17.4827C33.4567 17.4827 30.9988 15.0251 30.9988 11.9936C30.9988 8.9618 33.4567 6.50421 36.4888 6.50421C38.6795 6.50421 40.5701 7.78754 41.4508 9.6429L46.6893 7.00886C44.8432 3.23951 40.9694 0.643633 36.4888 0.643633C30.2196 0.643633 25.1372 5.72514 25.1372 11.9936C25.1372 18.2618 30.2196 23.3433 36.4888 23.3433C40.9383 23.3433 44.7889 20.7835 46.6502 17.057L41.4219 14.4038Z" fill="black"/>
<path d="M17.2794 14.4038C16.3866 16.2269 14.5134 17.4827 12.3462 17.4827C9.31417 17.4827 6.85617 15.0251 6.85617 11.9936C6.85617 8.9618 9.31417 6.50421 12.3462 6.50421C14.537 6.50421 16.4275 7.78754 17.3082 9.6429L22.5468 7.00886C20.7006 3.23951 16.8268 0.643633 12.3462 0.643633C6.07697 0.643633 0.994629 5.72514 0.994629 11.9936C0.994629 18.2618 6.07697 23.3433 12.3462 23.3433C16.7957 23.3433 20.6463 20.7835 22.5076 17.057L17.2794 14.4038Z" fill="black"/>
</svg>
